<svg xmlns="http://www.w3.org/2000/svg" width="860" height="420" viewBox="0 0 860 420" font-family="Helvetica,Arial,sans-serif">
<title>One-at-a-time sensitivity of the annualised loss expectancy</title>
<rect width="860" height="420" fill="#ffffff"/>
<text x="18" y="28" font-size="17" font-weight="600" fill="#222222">One-at-a-time sensitivity of the annualised loss expectancy</text>
<line x1="76" y1="344.0" x2="832" y2="344.0" stroke="#d9d9d9"/>
<text x="68" y="348.0" font-size="11" text-anchor="end" fill="#666">0</text>
<text x="76.0" y="362" font-size="11" text-anchor="middle" fill="#666">0.50</text>
<line x1="76" y1="274.0" x2="832" y2="274.0" stroke="#d9d9d9"/>
<text x="68" y="278.0" font-size="11" text-anchor="end" fill="#666">50</text>
<text x="265.0" y="362" font-size="11" text-anchor="middle" fill="#666">1.38</text>
<line x1="76" y1="204.0" x2="832" y2="204.0" stroke="#d9d9d9"/>
<text x="68" y="208.0" font-size="11" text-anchor="end" fill="#666">99</text>
<text x="454.0" y="362" font-size="11" text-anchor="middle" fill="#666">2.25</text>
<line x1="76" y1="134.0" x2="832" y2="134.0" stroke="#d9d9d9"/>
<text x="68" y="138.0" font-size="11" text-anchor="end" fill="#666">149</text>
<text x="643.0" y="362" font-size="11" text-anchor="middle" fill="#666">3.12</text>
<line x1="76" y1="64.0" x2="832" y2="64.0" stroke="#d9d9d9"/>
<text x="68" y="68.0" font-size="11" text-anchor="end" fill="#666">198</text>
<text x="832.0" y="362" font-size="11" text-anchor="middle" fill="#666">4.00</text>
<path d="M76.0,94.0 L130.0,208.6 L184.0,276.7 L238.0,307.3 L292.0,323.9" fill="none" stroke="#1f4e79" stroke-width="2.4"/>
<circle cx="76.0" cy="94.0" r="3.2" fill="#1f4e79"/>
<circle cx="130.0" cy="208.6" r="3.2" fill="#1f4e79"/>
<circle cx="184.0" cy="276.7" r="3.2" fill="#1f4e79"/>
<circle cx="238.0" cy="307.3" r="3.2" fill="#1f4e79"/>
<circle cx="292.0" cy="323.9" r="3.2" fill="#1f4e79"/>
<rect x="76" y="390" width="12" height="12" fill="#1f4e79"/>
<text x="94" y="401" font-size="12" fill="#222222">detection efficacy x</text>
<path d="M76.0,321.6 L184.0,299.2 L292.0,276.7 L508.0,231.9 L832.0,164.6" fill="none" stroke="#c0504d" stroke-width="2.4"/>
<circle cx="76.0" cy="321.6" r="3.2" fill="#c0504d"/>
<circle cx="184.0" cy="299.2" r="3.2" fill="#c0504d"/>
<circle cx="292.0" cy="276.7" r="3.2" fill="#c0504d"/>
<circle cx="508.0" cy="231.9" r="3.2" fill="#c0504d"/>
<circle cx="832.0" cy="164.6" r="3.2" fill="#c0504d"/>
<rect x="276" y="390" width="12" height="12" fill="#c0504d"/>
<text x="294" y="401" font-size="12" fill="#222222">campaign frequency /yr</text>
<text x="454" y="386" font-size="12" text-anchor="middle" fill="#444">parameter multiplier or value</text>
<text x="16" y="204" font-size="12" fill="#444" transform="rotate(-90 16 204)" text-anchor="middle">ALE (million USD / plant-year)</text>
</svg>